# AST/ASF file generated using VICON BodyLanguage
# -----------------------------------------------
:version 1.10
:name VICON
:units
  mass 1.0
  length 0.45
  angle deg
:documentation
   .ast/.asf automatically generated from VICON data using
   VICON BodyBuilder and BodyLanguage model FoxedUp or BRILLIANT.MOD
:root
   order TX TY TZ RX RY RZ
   axis XYZ
   position 0 0 0  
   orientation 0 0 0 
:bonedata
  begin
     id 1 
     name lhipjoint
     direction 0.710188 -0.616876 0.339259 
     length 2.5669 
     axis 0 0 0  XYZ
  end
  begin
     id 2 
     name lfemur
     direction 0.34202 -0.939693 0  
     length 7.12796  
     axis 0 0 20  XYZ
    dof rx ry rz
    limits (-160.0 20.0)
           (-70.0 70.0)
           (-60.0 70.0)
  end
  begin
     id 3 
     name ltibia
     direction 0.34202 -0.939693 0   
     length 7.58108   
     axis 0 0 20   XYZ
    dof rx
    limits (-10.0 170.0)
  end
  begin
     id 4 
     name lfoot
     direction 0.0669471 -0.183936 0.980656   
     length 2.17365   
     axis -90 7.62852e-016 20   XYZ
    dof rx rz
    limits (-45.0 90.0)
           (-70.0 20.0)
  end
  begin
     id 5 
     name ltoes
     direction 1.53508e-011 -4.21705e-011 1   
     length 1.09427   
     axis -90 7.62852e-016 20   XYZ
    dof rx
    limits (-90.0 20.0)
  end
  begin
     id 6 
     name rhipjoint
     direction -0.700191 -0.625589 0.34405   
     length 2.53115  
     axis 0 0 0  XYZ 
  end
  begin
     id 7 
     name rfemur
     direction -0.34202 -0.939693 0   
     length 7.33006   
     axis 0 0 -20   XYZ
    dof rx ry rz
    limits (-160.0 20.0)
           (-70.0 70.0)
           (-70.0 60.0)
  end
  begin
     id 8 
     name rtibia
     direction -0.34202 -0.939693 0   
     length 7.64926   
     axis 0 0 -20   XYZ
    dof rx
    limits (-10.0 170.0)
 end
 begin
     id 9 
     name rfoot
     direction -0.0688927 -0.189281 0.979503   
     length 2.20493  
     axis -90 -7.62852e-016 -20   XYZ
    dof rx rz
    limits (-45.0 90.0)
           (-20.0 70.0)
  end
  begin
     id 10 
     name rtoes
     direction -1.53567e-011 -4.21933e-011 1   
     length 1.10919   
     axis -90 -7.62852e-016 -20   XYZ
    dof rx
    limits (-90.0 20.0)
  end
  begin
     id 11 
     name lowerback
     direction -0.0167868 0.989873 -0.140959   
     length 2.14596   
     axis 0 0 0   XYZ
    dof rx ry rz
    limits (-20.0 45.0)
           (-30.0 30.0)
           (-30.0 30.0)
  end
  begin
     id 12 
     name upperback
     direction 0.0129109 0.998033 0.0613525   
     length 2.10457   
     axis 0 0 0   XYZ
    dof rx ry rz
    limits (-20.0 45.0)
           (-30.0 30.0)
           (-30.0 30.0)
  end
  begin
     id 13 
     name thorax
     direction 0.0177047 0.991119 0.131797   
     length 2.17652   
     axis 0 0 0   XYZ
    dof rx ry rz
    limits (-20.0 45.0)
           (-30.0 30.0)
           (-30.0 30.0)
  end
  begin
     id 14 
     name lowerneck
     direction -0.0336893 0.997548 0.0613464   
     length 1.8912   
     axis 0 0 0   XYZ
    dof rx ry rz
    limits (-20.0 45.0)
           (-30.0 30.0)
           (-30.0 30.0)
  end
  begin
     id 15 
     name upperneck
     direction 0.0435909 0.997179 -0.0611028   
     length 1.8829   
     axis 0 0 0   XYZ
    dof rx ry rz
    limits (-20.0 45.0)
           (-30.0 30.0)
           (-30.0 30.0)
  end
  begin
     id 16
     name head
     direction 0.0175076 0.999444 -0.0283782  
     length 1.93197  
     axis 0 0 0   XYZ
    dof rx ry rz
    limits (-20.0 45.0)
           (-30.0 30.0)
           (-30.0 30.0)
  end
  begin
     id 17 
     name lclavicle
     direction 0.919164 0.389875 0.0559876  
     length 3.60004  
     axis 0 0 0   XYZ
    dof ry rz
    limits (-20.0 10.0)
           (0.0 20.0)
  end
  begin
     id 18 
     name lhumerus
     direction 1 -4.48958e-011 6.89191e-027   
     length 5.43301   
     axis 180 -30 -90   XYZ
    dof rx ry rz
    limits (-60.0 90.0)
           (-90.0 90.0)
           (-90.0 90.0)
  end
  begin
     id 19
     name lradius
     direction 1 -4.4897e-011 3.24727e-027   
     length 3.15936   
     axis 180 -30 -90   XYZ
    dof rx
    limits (-10.0 170.0)
  end
  begin
     id 20
     name lwrist
     direction 1 -4.4897e-011 9.00228e-027   
     length 1.57968   
     axis -6.29373e-015 90 90   XYZ
    dof ry
    limits (-180.0 0.0)
 end
  begin
     id 21 
     name lhand
     direction 1 -4.48968e-011 1.80042e-026   
     length 0.712827   
     axis -1.14882e-014 90 90   XYZ
    dof rx rz
    limits (-90.0 90.0)
           (-45.0 45.0)
  end
  begin
     id 22 
     name lfingers
     direction 1 -4.49019e-011 3.60267e-026   
     length 0.574699   
     axis -2.29769e-014 90 90   XYZ
    dof rx
    limits (0.0 90.0)
  end
  begin
     id 23
     name lthumb
     direction 0.707107 -6.3498e-011 0.707107   
     length 0.825157   
     axis -90 45 5.37419e-014   XYZ
    dof rx rz
    limits (-45.0 45.0)
           (-45.0 45.0)
  end
  begin
     id 24 
     name rclavicle
     direction -0.890334 0.455305 -0.00132111   
     length 3.51494  
     axis 0 0 0   XYZ 
    dof ry rz
    limits (-10.0 20.0)
           (-20.0 0.0)
  end
  begin
     id 25 
     name rhumerus
     direction -1 -4.48967e-011 5.07175e-028  
     length 5.34194   
     axis 180 30 90   XYZ
    dof rx ry rz
    limits (-90.0 60.0)
           (-90.0 90.0)
           (-90.0 90.0)
  end
  begin
     id 26 
     name rradius
     direction -1 -4.48955e-011 3.30467e-027   
     length 3.19351   
     axis 180 30 90   XYZ
    dof rx
    limits (-10.0 170.0)
  end
  begin
     id 27 
     name rwrist
     direction -1 -4.48968e-011 9.00208e-027   
     length 1.59676   
     axis -6.29373e-015 -90 -90   XYZ
    dof ry
    limits (-180.0 0.0)
  end
  begin
     id 28
     name rhand
     direction -1 -4.49e-011 1.80099e-026   
     length 0.743862   
     axis -1.14882e-014 -90 -90   XYZ
    dof rx rz
    limits (-90.0 90.0)
           (-45.0 45.0)
  end
  begin
     id 29
     name rfingers
     direction -1 -4.49009e-011 3.6023e-026   
     length 0.599721   
     axis -2.29769e-014 -90 -90   XYZ
    dof rx
    limits (0.0 90.0)
  end
  begin
     id 30
     name rthumb
     direction -0.707107 -6.35025e-011 0.707107   
     length 0.861083   
     axis -90 -45 -5.37419e-014   XYZ
    dof rx rz
    limits (-45.0 45.0)
           (-45.0 45.0)
  end
:hierarchy
  begin
    root lhipjoint rhipjoint lowerback
    lhipjoint lfemur
    lfemur ltibia
    ltibia lfoot
    lfoot ltoes
    rhipjoint rfemur
    rfemur rtibia
    rtibia rfoot
    rfoot rtoes
    lowerback upperback
    upperback thorax
    thorax lowerneck lclavicle rclavicle
    lowerneck upperneck
    upperneck head
    lclavicle lhumerus
    lhumerus lradius
    lradius lwrist
    lwrist lhand lthumb
    lhand lfingers
    rclavicle rhumerus
    rhumerus rradius
    rradius rwrist
    rwrist rhand rthumb
    rhand rfingers
  end

#!OML:ASF H:\Martial Arts Walks\Project 1\Capture day 1\Session 1\male.ASF
:FULLY-SPECIFIED
:DEGREES
765
root -8.16846 11.1692 4.37836 7.74522 76.0922 -2.87566
lowerback 18.712 -2.79856 -5.58128
upperback -1.98627 -4.42317 4.54662
thorax -11.9691 -1.48472 9.58208
lowerneck 7.74539 -16.015 -15.5012
upperneck -1.3232 -22.6461 18.9482
head 2.34499 -11.6426 7.4354
rclavicle -5.84427e-014 -2.38542e-015
rhumerus -13.6373 -9.92253 -46.5849
rradius 109.266
rwrist -21.6931
rhand -24.2341 -43.7029
rfingers 7.12502
rthumb 2.25123 -73.6707
lclavicle -5.84427e-014 -2.38542e-015
lhumerus -12.7035 -58.8638 95.0616
lradius 109.389
lwrist 20.6488
lhand -8.21755 3.64191
lfingers 7.12502
lthumb 17.6995 32.8564
rfemur -69.7916 -33.6379 -1.07088
rtibia 95.7347
rfoot -32.4623 26.0879
rtoes -17.4086
lfemur -60.6647 40.9056 4.92159
ltibia 99.3719
lfoot -35.1375 3.72941
ltoes -26.5193
766
root -8.16626 11.1541 4.37767 7.56118 76.0261 -3.08179
lowerback 18.7389 -2.79508 -5.46003
upperback -1.96777 -4.3955 4.50781
thorax -11.9805 -1.48127 9.46042
lowerneck 7.70267 -16.0485 -15.4416
upperneck -1.27344 -22.6873 18.9584
head 2.36794 -11.6604 7.41992
rclavicle 1.60022e-014 7.95139e-015
rhumerus -13.6045 -9.98725 -46.5824
rradius 109.198
rwrist -21.6754
rhand -24.205 -43.7417
rfingers 7.12502
rthumb 2.27942 -73.7093
lclavicle 1.60022e-014 7.95139e-015
lhumerus -12.5849 -58.9586 94.9181
lradius 109.358
lwrist 20.5643
lhand -8.14506 3.3425
lfingers 7.12502
lthumb 17.7693 32.5506
rfemur -69.9472 -33.7182 -0.977991
rtibia 95.8518
rfoot -32.4074 26.3494
rtoes -17.0531
lfemur -60.6888 41.0179 5.04224
ltibia 99.5216
lfoot -35.202 3.71616
ltoes -26.5738
767
root -8.1641 11.1376 4.37784 7.64661 75.9777 -3.04775
lowerback 18.7454 -2.8044 -5.48548
upperback -1.9642 -4.41281 4.51805
thorax -11.9741 -1.48773 9.49195
lowerneck 7.64808 -16.044 -15.452
upperneck -1.23659 -22.6808 18.9674
head 2.38865 -11.6541 7.41758
rclavicle -3.27995e-015 -1.59028e-015
rhumerus -13.52 -9.9853 -46.5934
rradius 109.124
rwrist -21.6328
rhand -24.0416 -43.6879
rfingers 7.12502
rthumb 2.43718 -73.6537
lclavicle -3.27995e-015 -1.59028e-015
lhumerus -12.523 -58.9181 94.825
lradius 109.375
lwrist 20.5206
lhand -7.90088 3.28072
lfingers 7.12502
lthumb 18.0042 32.4674
rfemur -70.1451 -33.8362 -0.931333
rtibia 95.9853
rfoot -32.4225 26.5037
rtoes -16.9755
lfemur -60.7903 41.114 5.04415
ltibia 99.6708
lfoot -35.2244 3.83565
ltoes -26.7291
768
root -8.16174 11.1224 4.37764 7.65963 75.9104 -3.05709
lowerback 18.7485 -2.79386 -5.42919
upperback -1.94834 -4.39066 4.47725
thorax -11.9692 -1.4838 9.40511
lowerneck 7.63126 -16.0572 -15.4046
upperneck -1.20576 -22.6963 18.9864
head 2.40004 -11.6608 7.4126
rclavicle 4.95968e-014 -1.59028e-014
rhumerus -13.5314 -10.0535 -46.5947
rradius 109.089
rwrist -21.6399
rhand -24.0073 -43.7264
rfingers 7.12502
rthumb 2.47033 -73.6919
lclavicle 4.95968e-014 -1.59028e-014
lhumerus -12.3999 -58.9936 94.6941
lradius 109.359
lwrist 20.5631
lhand -7.64491 3.23347
lfingers 7.12502
lthumb 18.2505 32.3973
rfemur -70.3301 -33.9554 -0.871899
rtibia 96.114
rfoot -32.3214 26.8098
rtoes -16.5657
lfemur -60.8537 41.2453 5.07314
ltibia 99.8233
lfoot -35.2496 3.92499
ltoes -26.7893
769
root -8.15977 11.1068 4.37837 7.63736 75.8495 -3.09846
lowerback 18.7646 -2.79458 -5.40104
upperback -1.9365 -4.38817 4.45572
thorax -11.969 -1.48581 9.36379
lowerneck 7.63773 -16.0527 -15.3957
upperneck -1.1865 -22.6928 19.0073
head 2.4057 -11.6595 7.41784
rclavicle -4.42296e-014 -7.55382e-015
rhumerus -13.501 -10.083 -46.6442
rradius 109.046
rwrist -21.6266
rhand -23.8746 -43.6344
rfingers 7.12502
rthumb 2.59845 -73.5983
lclavicle -4.42296e-014 -7.55382e-015
lhumerus -12.2307 -59.0216 94.5522
lradius 109.296
lwrist 20.6661
lhand -7.4703 3.21881
lfingers 7.12502
lthumb 18.4185 32.3668
rfemur -70.5159 -34.0824 -0.796958
rtibia 96.2541
rfoot -32.2838 27.0233
rtoes -16.3272
lfemur -60.9074 41.3746 5.13841
ltibia 99.9703
lfoot -35.2899 3.83391
ltoes -26.8003
770
root -8.157 11.0926 4.37823 7.63175 75.7815 -3.08688
lowerback 18.8147 -2.79205 -5.37119
upperback -1.91916 -4.38241 4.43037
thorax -11.9832 -1.48553 9.3193
lowerneck 7.51828 -16.0867 -15.392
upperneck -1.01996 -22.7422 18.9274
head 2.47132 -11.674 7.36983
rclavicle 3.77691e-014 7.95139e-016
rhumerus -13.4763 -10.0836 -46.6565
rradius 109
rwrist -21.6425
rhand -23.8668 -43.6577
rfingers 7.12502
rthumb 2.60601 -73.6215
lclavicle 3.77691e-014 7.95139e-016
lhumerus -12.1581 -59.0491 94.4608
lradius 109.269
lwrist 20.8048
lhand -7.36184 3.18133
lfingers 7.12502
lthumb 18.5228 32.3195
rfemur -70.6365 -34.2096 -0.765096
rtibia 96.3775
rfoot -32.1693 27.3717
rtoes -15.744
lfemur -60.882 41.468 5.2226
ltibia 100.109
lfoot -35.3291 3.79307
ltoes -26.8149
771
root -8.1554 11.0786 4.37835 7.60323 75.7286 -3.10614
lowerback 18.8853 -2.80393 -5.32568
upperback -1.91826 -4.39422 4.39782
thorax -12.0265 -1.49248 9.26552
lowerneck 7.56683 -16.039 -15.3973
upperneck -1.03623 -22.6828 18.9722
head 2.45496 -11.6479 7.39618
rclavicle -7.36497e-014 1.27222e-014
rhumerus -13.467 -10.0627 -46.7164
rradius 108.953
rwrist -21.6765
rhand -23.8549 -43.6908
rfingers 7.12502
rthumb 2.61751 -73.6544
lclavicle -7.36497e-014 1.27222e-014
lhumerus -12.097 -59.0647 94.3362
lradius 109.246
lwrist 20.9504
lhand -7.3961 3.06296
lfingers 7.12502
lthumb 18.4898 32.2042
rfemur -70.7654 -34.3241 -0.719314
rtibia 96.4938
rfoot -32.1327 27.5839
rtoes -15.5379
lfemur -60.8936 41.548 5.29379
ltibia 100.244
lfoot -35.3536 3.77978
ltoes -26.8276
772
root -8.15386 11.0658 4.37833 7.45348 75.6897 -3.25169
lowerback 18.9359 -2.81382 -5.25253
upperback -1.90383 -4.39335 4.38243
thorax -12.0457 -1.49651 9.20887
lowerneck 7.46973 -16.0634 -15.3627
upperneck -0.909685 -22.7136 18.879
head 2.49698 -11.6549 7.34695
rclavicle 6.44062e-014 -1.47101e-014
rhumerus -13.385 -10.0307 -46.7256
rradius 108.874
rwrist -21.7322
rhand -23.8007 -43.7313
rfingers 7.12502
rthumb 2.66979 -73.6943
lclavicle 6.44062e-014 -1.47101e-014
lhumerus -11.9078 -59.1002 94.1603
lradius 109.173
lwrist 21.0713
lhand -7.36531 3.07198
lfingers 7.12502
lthumb 18.5195 32.2104
rfemur -70.86 -34.3926 -0.655711
rtibia 96.5981
rfoot -32.2343 27.6114
rtoes -15.6505
lfemur -60.9139 41.6067 5.38983
ltibia 100.37
lfoot -35.3553 3.84049
ltoes -26.9491
773
root -8.15257 11.053 4.37802 7.31966 75.6549 -3.37318
lowerback 18.9823 -2.83782 -5.15057
upperback -1.89017 -4.40869 4.33475
thorax -12.0649 -1.51173 9.1021
lowerneck 7.52849 -16.027 -15.3369
upperneck -0.945699 -22.6659 18.9333
head 2.47291 -11.6357 7.37269
rclavicle -1.2752e-013 3.37934e-014
rhumerus -13.3352 -10.0025 -46.7997
rradius 108.803
rwrist -21.7073
rhand -23.8717 -43.7923
rfingers 7.12502
rthumb 2.60125 -73.7562
lclavicle -1.2752e-013 3.37934e-014
lhumerus -11.8125 -59.1478 93.9761
lradius 109.123
lwrist 21.1644
lhand -7.4941 2.96846
lfingers 7.12502
lthumb 18.3956 32.1186
rfemur -70.9468 -34.4704 -0.613115
rtibia 96.6944
rfoot -32.1272 27.8655
rtoes -15.2625
lfemur -60.9266 41.677 5.48142
ltibia 100.491
lfoot -35.3838 3.8156
ltoes -27.0139
774
root -8.1506 11.0442 4.37896 7.03111 75.6341 -3.62625
lowerback 19.0738 -2.8487 -5.13876
upperback -1.88014 -4.41785 4.3718
thorax -12.1025 -1.51223 9.14901
lowerneck 7.52327 -16.0008 -15.3822
upperneck -0.904949 -22.6378 18.911
head 2.48317 -11.6205 7.37304
rclavicle 2.10712e-014 1.23246e-014
rhumerus -13.2616 -9.92378 -46.799
rradius 108.74
rwrist -21.6723
rhand -23.8068 -43.8583
rfingers 7.12502
rthumb 2.66394 -73.8214
lclavicle 2.10712e-014 1.23246e-014
lhumerus -11.6938 -59.1075 93.8909
lradius 109.029
lwrist 21.2398
lhand -7.48538 3.03571
lfingers 7.12502
lthumb 18.4039 32.1851
rfemur -70.9562 -34.4993 -0.560097
rtibia 96.7702
rfoot -32.0262 28.074
rtoes -14.8408
lfemur -60.8739 41.714 5.64807
ltibia 100.587
lfoot -35.4034 3.76343
ltoes -26.9896
775
root -8.14983 11.0342 4.37904 6.68649 75.6037 -3.93809
lowerback 19.1866 -2.85617 -5.0571
upperback -1.8799 -4.41071 4.3774
thorax -12.1743 -1.5087 9.11779
lowerneck 7.50764 -15.9948 -15.3695
upperneck -0.846034 -22.6315 18.8583
head 2.49371 -11.6148 7.35335
rclavicle 7.25564e-014 -2.82274e-014
rhumerus -13.279 -9.86163 -46.8241
rradius 108.724
rwrist -21.6313
rhand -23.7771 -43.9368
rfingers 7.12502
rthumb 2.69267 -73.8996
lclavicle 7.25564e-014 -2.82274e-014
lhumerus -11.5763 -59.1373 93.7813
lradius 108.951
lwrist 21.3154
lhand -7.63752 3.10526
lfingers 7.12502
lthumb 18.2576 32.2684
rfemur -70.9954 -34.5164 -0.491911
rtibia 96.8474
rfoot -31.8496 28.335
rtoes -14.1724
lfemur -60.8324 41.7746 5.80997
ltibia 100.68
lfoot -35.4133 3.91835
ltoes -27.1807
776
root -8.14986 11.0258 4.37929 6.15313 75.5825 -4.4428
lowerback 19.2913 -2.8701 -4.89681
upperback -1.86432 -4.39373 4.37211
thorax -12.2319 -1.50778 9.02339
lowerneck 7.45781 -16.007 -15.3571
upperneck -0.768941 -22.6501 18.8497
head 2.52494 -11.6202 7.33914
rclavicle 1.2921e-014 3.06128e-014
rhumerus -13.2897 -9.86724 -46.8635
rradius 108.663
rwrist -21.5741
rhand -23.776 -43.9499
rfingers 7.12502
rthumb 2.69371 -73.9127
lclavicle 1.2921e-014 3.06128e-014
lhumerus -11.4116 -59.2036 93.5968
lradius 108.903
lwrist 21.3554
lhand -7.80702 2.8834
lfingers 7.12502
lthumb 18.0945 32.0617
rfemur -71.0083 -34.4889 -0.359229
rtibia 96.9118
rfoot -31.8847 28.2859
rtoes -14.2056
lfemur -60.7909 41.8185 6.05115
ltibia 100.763
lfoot -35.3739 3.81571
ltoes -27.0378
777
root -8.15045 11.0169 4.379 5.80031 75.5718 -4.76029
lowerback 19.4339 -2.90052 -4.79139
upperback -1.86862 -4.41391 4.36246
thorax -12.324 -1.51799 8.97156
lowerneck 7.48088 -15.9705 -15.3629
upperneck -0.765189 -22.6052 18.8745
head 2.51848 -11.5993 7.3547
rclavicle 3.42904e-014 2.78299e-015
rhumerus -13.2651 -9.79772 -46.9151
rradius 108.613
rwrist -21.566
rhand -23.816 -43.9865
rfingers 7.12502
rthumb 2.65507 -73.9497
lclavicle 3.42904e-014 2.78299e-015
lhumerus -11.34 -59.2036 93.4613
lradius 108.87
lwrist 21.3406
lhand -7.84507 3.12299
lfingers 7.12502
lthumb 18.0579 32.3047
rfemur -71.0143 -34.4862 -0.282005
rtibia 96.9826
rfoot -32.0484 28.1085
rtoes -14.6792
lfemur -60.7551 41.8081 6.22444
ltibia 100.839
lfoot -35.3785 3.93329
ltoes -27.2378
778
root -8.15123 11.0089 4.3795 5.23994 75.5617 -5.26811
lowerback 19.5837 -2.92602 -4.60425
upperback -1.85662 -4.40878 4.33855
thorax -12.4132 -1.52321 8.84829
lowerneck 7.36303 -15.9857 -15.3406
upperneck -0.618424 -22.6272 18.8471
head 2.57807 -11.6014 7.32411
rclavicle -1.19271e-014 -1.11319e-014
rhumerus -13.3107 -9.80795 -46.995
rradius 108.588
rwrist -21.5805
rhand -23.7973 -43.9529
rfingers 7.12502
rthumb 2.67311 -73.9159
lclavicle -1.19271e-014 -1.11319e-014
lhumerus -11.2127 -59.2769 93.2626
lradius 108.848
lwrist 21.324
lhand -7.88663 3.07804
lfingers 7.12502
lthumb 18.0179 32.2634
rfemur -70.9711 -34.4459 -0.187405
rtibia 97.0454
rfoot -32.13 28.0492
rtoes -14.7516
lfemur -60.6629 41.8077 6.49367
ltibia 100.907
lfoot -35.4035 3.9443
ltoes -27.3859
779
root -8.15369 11.0021 4.37927 4.6307 75.5048 -5.85918
lowerback 19.727 -2.91617 -4.46779
upperback -1.85001 -4.35995 4.37378
thorax -12.5043 -1.50136 8.8106
lowerneck 7.37716 -15.9726 -15.3549
upperneck -0.662245 -22.6083 18.866
head 2.56375 -11.5938 7.33669
rclavicle -4.6615e-014 4.01545e-014
rhumerus -13.333 -9.8069 -47.0205
rradius 108.602
rwrist -21.5846
rhand -23.7524 -43.9486
rfingers 7.12502
rthumb 2.71651 -73.911
lclavicle -4.6615e-014 4.01545e-014
lhumerus -11.0652 -59.3043 93.1561
lradius 108.815
lwrist 21.2754
lhand -7.91459 3.12015
lfingers 7.12502
lthumb 17.991 32.308
rfemur -71.0012 -34.3056 -0.0386602
rtibia 97.0973
rfoot -32.0751 28.0314
rtoes -14.6624
lfemur -60.5952 41.8395 6.76774
ltibia 100.965
lfoot -35.4001 3.93744
ltoes -27.4386
